<svg xmlns="http://www.w3.org/2000/svg" xmlns:xlink="http://www.w3.org/1999/xlink" version="1.1" width="256" height="256" viewBox="0 0 256 256" xml:space="preserve">

<defs>
</defs>
<g style="stroke: none; stroke-width: 0; stroke-dasharray: none; stroke-linecap: butt; stroke-linejoin: miter; stroke-miterlimit: 10; fill: none; fill-rule: nonzero; opacity: 1;" transform="translate(1.4065934065934016 1.4065934065934016) scale(2.81 2.81)" >
	<path d="M 59.274 90 l -0.773 -0.945 c -6.041 -7.39 -11.586 -15.058 -16.036 -22.174 c -0.292 -0.468 -0.15 -1.082 0.317 -1.375 c 0.468 -0.292 1.083 -0.151 1.375 0.317 c 4.215 6.742 9.427 13.989 15.116 21.019 c 9.204 -11.383 28.62 -37.608 28.62 -56.228 c 0 -15.781 -12.838 -28.62 -28.62 -28.62 c -15.781 0 -28.62 12.839 -28.62 28.62 c 0 2.421 0.342 5.104 1.018 7.973 c 0.127 0.536 -0.206 1.073 -0.742 1.2 c -0.533 0.124 -1.073 -0.206 -1.199 -0.743 c -0.711 -3.019 -1.072 -5.856 -1.072 -8.43 C 28.659 13.734 42.393 0 59.274 0 s 30.615 13.734 30.615 30.615 c 0 19.799 -20.869 47.465 -29.842 58.44 L 59.274 90 z" style="stroke: none; stroke-width: 1; stroke-dasharray: none; stroke-linecap: butt; stroke-linejoin: miter; stroke-miterlimit: 10; fill: rgb(0,0,0); fill-rule: nonzero; opacity: 1;" transform=" matrix(1 0 0 1 0 0) " stroke-linecap="round" />
	<circle cx="58.778" cy="31.798" r="22.778" style="stroke: none; stroke-width: 1; stroke-dasharray: none; stroke-linecap: butt; stroke-linejoin: miter; stroke-miterlimit: 10; fill: rgb(248,204,29); fill-rule: nonzero; opacity: 1;" transform="  matrix(1 0 0 1 0 0) "/>
	<path d="M 58.483 49.35 c -4.479 0 -8.958 -1.706 -12.368 -5.115 c -6.819 -6.82 -6.819 -17.916 0 -24.736 l 0 0 c 6.819 -6.82 17.917 -6.82 24.736 0 c 6.82 6.82 6.82 17.916 0 24.736 C 67.442 47.645 62.962 49.35 58.483 49.35 z M 47.526 20.91 c -6.041 6.042 -6.041 15.873 0 21.915 c 6.043 6.042 15.872 6.043 21.915 0 c 6.042 -6.042 6.042 -15.873 0 -21.915 S 53.568 14.868 47.526 20.91 L 47.526 20.91 z" style="stroke: none; stroke-width: 1; stroke-dasharray: none; stroke-linecap: butt; stroke-linejoin: miter; stroke-miterlimit: 10; fill: rgb(0,0,0); fill-rule: nonzero; opacity: 1;" transform=" matrix(1 0 0 1 0 0) " stroke-linecap="round" />
	<path d="M 70.851 19.499 c -6.819 -6.82 -17.917 -6.82 -24.736 0 c -6.581 6.582 -6.791 17.135 -0.669 23.995 l -3.244 3.245 c -1.39 -1.004 -3.342 -0.891 -4.592 0.359 l -9.892 9.892 c -0.67 0.67 -1.039 1.564 -1.039 2.516 c 0 0.953 0.369 1.846 1.039 2.516 l 0.611 0.611 c 0.694 0.694 1.605 1.04 2.516 1.04 c 0.911 0 1.822 -0.347 2.516 -1.04 l 9.893 -9.892 c 0.67 -0.67 1.039 -1.564 1.039 -2.516 c 0 -0.76 -0.244 -1.476 -0.678 -2.077 l 3.243 -3.243 c 3.306 2.95 7.46 4.446 11.627 4.446 c 4.479 0 8.958 -1.706 12.368 -5.115 C 77.671 37.415 77.671 26.319 70.851 19.499 z M 41.842 51.331 l -9.892 9.892 c -0.61 0.61 -1.601 0.61 -2.211 0 l -0.611 -0.611 c -0.293 -0.293 -0.455 -0.686 -0.455 -1.106 c 0 -0.419 0.162 -0.812 0.455 -1.106 l 9.892 -9.892 c 0.305 -0.305 0.705 -0.457 1.106 -0.457 s 0.801 0.152 1.106 0.457 l 0.611 0.611 c 0.293 0.293 0.455 0.686 0.455 1.106 C 42.297 50.644 42.135 51.038 41.842 51.331 z M 69.441 42.824 c -6.043 6.043 -15.872 6.042 -21.915 0 c -6.041 -6.042 -6.041 -15.873 0 -21.915 c 6.042 -6.042 15.873 -6.042 21.915 0 S 75.482 36.783 69.441 42.824 z" style="stroke: none; stroke-width: 1; stroke-dasharray: none; stroke-linecap: butt; stroke-linejoin: miter; stroke-miterlimit: 10; fill: rgb(0,0,0); fill-rule: nonzero; opacity: 1;" transform=" matrix(1 0 0 1 0 0) " stroke-linecap="round" />
	<path d="M 49.557 34.423 c -0.525 0 -0.965 -0.411 -0.995 -0.942 c -0.175 -3.108 0.985 -6.152 3.185 -8.351 c 2.768 -2.768 6.836 -3.846 10.614 -2.816 c 0.532 0.145 0.846 0.693 0.7 1.225 c -0.145 0.533 -0.698 0.844 -1.225 0.7 c -3.092 -0.844 -6.417 0.039 -8.68 2.302 c -1.798 1.798 -2.747 4.287 -2.604 6.828 c 0.031 0.55 -0.39 1.021 -0.939 1.052 C 49.595 34.422 49.576 34.423 49.557 34.423 z" style="stroke: none; stroke-width: 1; stroke-dasharray: none; stroke-linecap: butt; stroke-linejoin: miter; stroke-miterlimit: 10; fill: rgb(0,0,0); fill-rule: nonzero; opacity: 1;" transform=" matrix(1 0 0 1 0 0) " stroke-linecap="round" />
	<path d="M 7.556 83.277 c -0.255 0 -0.51 -0.097 -0.705 -0.292 c -0.39 -0.39 -0.39 -1.021 0 -1.411 l 14.572 -14.572 c 0.39 -0.39 1.021 -0.39 1.411 0 c 0.39 0.39 0.39 1.021 0 1.411 L 8.262 82.985 C 8.067 83.18 7.812 83.277 7.556 83.277 z" style="stroke: none; stroke-width: 1; stroke-dasharray: none; stroke-linecap: butt; stroke-linejoin: miter; stroke-miterlimit: 10; fill: rgb(248,204,29); fill-rule: nonzero; opacity: 1;" transform=" matrix(1 0 0 1 0 0) " stroke-linecap="round" />
	<path d="M 24.217 82.639 c -0.255 0 -0.51 -0.097 -0.705 -0.292 c -0.39 -0.39 -0.39 -1.021 0 -1.411 l 12.756 -12.756 c 0.39 -0.39 1.021 -0.39 1.411 0 s 0.39 1.021 0 1.411 L 24.923 82.347 C 24.728 82.542 24.473 82.639 24.217 82.639 z" style="stroke: none; stroke-width: 1; stroke-dasharray: none; stroke-linecap: butt; stroke-linejoin: miter; stroke-miterlimit: 10; fill: rgb(248,204,29); fill-rule: nonzero; opacity: 1;" transform=" matrix(1 0 0 1 0 0) " stroke-linecap="round" />
	<path d="M 5.139 85.715 H 4.121 v -1.018 c 0 -0.551 -0.447 -0.998 -0.998 -0.998 s -0.998 0.446 -0.998 0.998 v 1.018 H 1.108 c -0.551 0 -0.998 0.446 -0.998 0.998 c 0 0.551 0.447 0.998 0.998 0.998 h 1.018 v 1.018 c 0 0.551 0.447 0.998 0.998 0.998 s 0.998 -0.446 0.998 -0.998 V 87.71 h 1.018 c 0.551 0 0.998 -0.446 0.998 -0.998 C 6.136 86.161 5.69 85.715 5.139 85.715 z" style="stroke: none; stroke-width: 1; stroke-dasharray: none; stroke-linecap: butt; stroke-linejoin: miter; stroke-miterlimit: 10; fill: rgb(248,204,29); fill-rule: nonzero; opacity: 1;" transform=" matrix(1 0 0 1 0 0) " stroke-linecap="round" />
	<path d="M 19.484 89.448 c -0.787 0 -1.575 -0.299 -2.174 -0.899 c -1.199 -1.199 -1.199 -3.149 0 -4.349 c 1.199 -1.201 3.15 -1.2 4.349 0 c 1.199 1.199 1.199 3.149 0 4.349 C 21.06 89.149 20.272 89.448 19.484 89.448 z M 19.484 85.295 c -0.276 0 -0.553 0.105 -0.764 0.316 c -0.421 0.421 -0.421 1.107 0 1.527 c 0.422 0.422 1.106 0.42 1.528 0 c 0.421 -0.421 0.421 -1.107 0 -1.527 C 20.038 85.4 19.761 85.295 19.484 85.295 z" style="stroke: none; stroke-width: 1; stroke-dasharray: none; stroke-linecap: butt; stroke-linejoin: miter; stroke-miterlimit: 10; fill: rgb(248,204,29); fill-rule: nonzero; opacity: 1;" transform=" matrix(1 0 0 1 0 0) " stroke-linecap="round" />
	<path d="M 8.592 65.774 c -0.255 0 -0.51 -0.097 -0.705 -0.292 c -0.39 -0.39 -0.39 -1.021 0 -1.411 l 18.302 -18.302 c 0.39 -0.39 1.021 -0.39 1.411 0 c 0.39 0.39 0.39 1.021 0 1.411 L 9.297 65.481 C 9.102 65.676 8.847 65.774 8.592 65.774 z" style="stroke: none; stroke-width: 1; stroke-dasharray: none; stroke-linecap: butt; stroke-linejoin: miter; stroke-miterlimit: 10; fill: rgb(248,204,29); fill-rule: nonzero; opacity: 1;" transform=" matrix(1 0 0 1 0 0) " stroke-linecap="round" />
	<path d="M 3.618 72.824 c -0.788 0 -1.575 -0.299 -2.175 -0.899 c -1.199 -1.199 -1.199 -3.15 0 -4.35 c 1.199 -1.201 3.149 -1.201 4.349 0 c 1.199 1.199 1.199 3.15 0 4.35 C 5.193 72.525 4.405 72.824 3.618 72.824 z M 3.618 68.67 c -0.277 0 -0.553 0.105 -0.764 0.316 c -0.421 0.422 -0.421 1.107 0 1.528 c 0.421 0.42 1.105 0.421 1.528 0 c 0.421 -0.422 0.421 -1.107 0 -1.528 C 4.171 68.775 3.894 68.67 3.618 68.67 z" style="stroke: none; stroke-width: 1; stroke-dasharray: none; stroke-linecap: butt; stroke-linejoin: miter; stroke-miterlimit: 10; fill: rgb(248,204,29); fill-rule: nonzero; opacity: 1;" transform=" matrix(1 0 0 1 0 0) " stroke-linecap="round" />
</g>
</svg>